<?xml version="1.0" encoding="UTF-8" standalone="no"?>
<!-- Created with Inkscape (http://www.inkscape.org/) -->

<svg
   xmlns:dc="http://purl.org/dc/elements/1.1/"
   xmlns:cc="http://creativecommons.org/ns#"
   xmlns:rdf="http://www.w3.org/1999/02/22-rdf-syntax-ns#"
   xmlns:svg="http://www.w3.org/2000/svg"
   xmlns="http://www.w3.org/2000/svg"
   xmlns:sodipodi="http://sodipodi.sourceforge.net/DTD/sodipodi-0.dtd"
   xmlns:inkscape="http://www.inkscape.org/namespaces/inkscape"
   width="37.796227mm"
   height="31.207571mm"
   viewBox="0 0 133.92364 110.57801"
   id="svg2"
   version="1.1"
   inkscape:version="0.91 r13725"
   sodipodi:docname="hands.svg">
  <defs
     id="defs4" />
  <sodipodi:namedview
     id="base"
     pagecolor="#ffffff"
     bordercolor="#666666"
     borderopacity="1.0"
     inkscape:pageopacity="0.0"
     inkscape:pageshadow="2"
     inkscape:zoom="0.35"
     inkscape:cx="-192.32389"
     inkscape:cy="-249.86029"
     inkscape:document-units="px"
     inkscape:current-layer="layer1"
     showgrid="false"
     fit-margin-top="0"
     fit-margin-left="0"
     fit-margin-right="0"
     fit-margin-bottom="0"
     inkscape:window-width="1280"
     inkscape:window-height="995"
     inkscape:window-x="0"
     inkscape:window-y="0"
     inkscape:window-maximized="1" />
  <metadata
     id="metadata7">
    <rdf:RDF>
      <cc:Work
         rdf:about="">
        <dc:format>image/svg+xml</dc:format>
        <dc:type
           rdf:resource="http://purl.org/dc/dcmitype/StillImage" />
        <dc:title></dc:title>
      </cc:Work>
    </rdf:RDF>
  </metadata>
  <g
     inkscape:label="Layer 1"
     inkscape:groupmode="layer"
     id="layer1"
     transform="translate(-47.323893,-171.9239)">
    <g
       id="g4170"
       transform="matrix(0.28603366,0,0,0.28603366,33.787667,122.74788)"
       inkscape:export-xdpi="21.5"
       inkscape:export-ydpi="21.5">
      <path
         sodipodi:nodetypes="ssssssssssssssssssssssssssssssssssssssssssssssss"
         inkscape:connector-curvature="0"
         id="path4147"
         d="m 248.72772,445.90101 c 0,0 -7.10215,-13.88309 -9.42261,-21.28811 -2.01934,-6.44408 -1.45464,-13.57399 -3.83884,-19.89217 -3.00067,-7.95183 -8.55297,-14.69018 -12.91247,-21.98609 -3.56118,-5.95987 -7.72569,-11.58244 -10.81855,-17.79826 -2.95429,-5.93735 -6.39574,-11.93043 -7.32869,-18.49623 -0.34523,-2.42954 -1.26473,-5.85571 0.69797,-7.32869 1.98899,-1.49271 5.28566,-0.0219 7.3287,1.39593 6.26105,4.34512 7.21645,13.5044 11.8655,19.5432 2.65995,3.45508 4.95687,7.98552 9.07362,9.4226 1.66202,0.58018 4.34658,0.8219 5.23479,-0.69797 0.63215,-1.08172 -0.94237,-2.32194 -1.39594,-3.48985 -3.10525,-7.99579 -6.54617,-15.88322 -9.07363,-24.08 -1.1639,-3.77466 -1.9893,-7.64888 -2.79188,-11.51652 -1.24734,-6.01097 -2.19499,-12.08154 -3.14087,-18.14725 -0.65144,-4.17754 -2.30745,-8.37304 -1.74493,-12.56348 0.23574,-1.75611 0.69552,-3.79768 2.09391,-4.88579 1.76599,-1.37414 3.57336,-2.16129 4.8858,-0.34899 0,0 6.0619,8.44452 7.67768,13.61044 1.22333,3.91115 3.27586,8.09699 4.8858,11.8655 4.64046,10.86235 6.24054,23.14513 11.51652,32.45565 0.7094,1.25188 2.94943,1.77964 4.18783,1.04696 1.96701,-1.16376 1.86574,-4.34843 1.74493,-6.63072 -1.38068,-26.08228 -2.97329,-48.75612 -3.83885,-72.24 -0.10982,-2.97971 0.65217,-6.73337 3.14087,-8.37565 2.13827,-1.41103 5.52958,-1.04702 7.67769,0.34898 2.61728,1.70091 3.63922,5.30282 4.18782,8.37565 4.29425,24.05296 5.30193,50.45496 10.12058,70.49507 0.32861,1.36665 3.27144,3.03092 3.83884,1.74493 9.28469,-21.04347 6.75577,-48.06053 14.65739,-70.84405 0.85232,-2.45758 1.27715,-5.61219 3.48986,-6.97971 1.58327,-0.97852 3.92254,-0.83943 5.58376,0 2.45038,1.23819 4.79066,3.88692 4.8858,6.63072 0.77243,22.27603 -3.2032,44.88681 -4.18783,67.3542 -0.38181,8.7124 1.4434,17.54726 4.18783,25.82493 1.03156,3.11135 2.26536,6.36134 4.53681,8.72463 1.29981,1.35237 3.01896,2.97443 4.8858,2.79189 2.29809,-0.22472 3.81068,-2.71921 5.23478,-4.53681 3.62579,-4.62766 5.77496,-10.27376 8.02667,-15.70435 1.73309,-4.17981 1.92014,-8.99685 4.18782,-12.91246 2.51769,-4.34731 5.38272,-9.49708 10.12058,-11.16754 2.1103,-0.74404 6.93258,-1.17021 6.63073,1.04696 0,0 -0.19914,9.53987 -0.34899,14.3084 -0.0951,3.02529 0.25087,6.10689 -0.34898,9.07363 -3.00593,14.86653 -9.85324,28.73396 -16.05334,42.57622 -4.72184,10.54196 -11.76898,19.98352 -16.05333,30.71073 -1.57056,3.93238 -3.48985,12.21449 -3.48985,12.21449 -26.3322,3.75244 -41.87085,3.16409 -69.7971,0.34898 z"
         style="fill:#000000;fill-opacity:1;fill-rule:evenodd;stroke:#000000;stroke-width:0.12214492px;stroke-linecap:butt;stroke-linejoin:miter;stroke-opacity:1" />
      <path
         inkscape:transform-center-y="157.14405"
         inkscape:transform-center-x="131.42839"
         sodipodi:nodetypes="ssssssssssssssssssssssssssssssssssssssssssssssss"
         inkscape:connector-curvature="0"
         id="path4147-3"
         d="m 409.36741,353.30761 c 0,0 -7.10215,-13.88309 -9.42261,-21.28811 -2.01934,-6.44408 -1.45464,-13.57399 -3.83884,-19.89217 -3.00067,-7.95183 -8.55297,-14.69018 -12.91247,-21.98609 -3.56118,-5.95987 -7.72569,-11.58244 -10.81855,-17.79826 -2.95429,-5.93735 -6.39574,-11.93043 -7.32869,-18.49623 -0.34523,-2.42954 -1.26473,-5.85571 0.69797,-7.32869 1.98899,-1.49271 5.28566,-0.0219 7.3287,1.39593 6.26105,4.34512 7.21645,13.5044 11.8655,19.5432 2.65995,3.45508 4.95687,7.98552 9.07362,9.4226 1.66202,0.58018 4.34658,0.8219 5.23479,-0.69797 0.63215,-1.08172 -0.94237,-2.32194 -1.39594,-3.48985 -3.10525,-7.99579 -6.54617,-15.88322 -9.07363,-24.08 -1.1639,-3.77466 -1.9893,-7.64888 -2.79188,-11.51652 -1.24734,-6.01097 -2.19499,-12.08154 -3.14087,-18.14725 -0.65144,-4.17754 -2.30745,-8.37304 -1.74493,-12.56348 0.23574,-1.75611 0.69552,-3.79768 2.09391,-4.88579 1.76599,-1.37414 3.57336,-2.16129 4.8858,-0.34899 0,0 6.0619,8.44452 7.67768,13.61044 1.22333,3.91115 3.27586,8.09699 4.8858,11.8655 4.64046,10.86235 6.24054,23.14513 11.51652,32.45565 0.7094,1.25188 2.94943,1.77964 4.18783,1.04696 1.96701,-1.16376 1.86574,-4.34843 1.74493,-6.63072 -1.38068,-26.08228 -2.97329,-48.75612 -3.83885,-72.24 -0.10982,-2.97971 0.65217,-6.73337 3.14087,-8.37565 2.13827,-1.41103 5.52958,-1.04702 7.67769,0.34898 2.61728,1.70091 3.63922,5.30282 4.18782,8.37565 4.29425,24.05296 5.30193,50.45496 10.12058,70.49507 0.32861,1.36665 3.27144,3.03092 3.83884,1.74493 9.28469,-21.04347 6.75577,-48.06053 14.65739,-70.84405 0.85232,-2.45758 1.27715,-5.61219 3.48986,-6.97971 1.58327,-0.97852 3.92254,-0.83943 5.58376,0 2.45038,1.23819 4.79066,3.88692 4.8858,6.63072 0.77243,22.27603 -3.2032,44.88681 -4.18783,67.3542 -0.38181,8.7124 1.4434,17.54726 4.18783,25.82493 1.03156,3.11135 2.26536,6.36134 4.53681,8.72463 1.29981,1.35237 3.01896,2.97443 4.8858,2.79189 2.29809,-0.22472 3.81068,-2.71921 5.23478,-4.53681 3.62579,-4.62766 5.77496,-10.27376 8.02667,-15.70435 1.73309,-4.17981 1.92014,-8.99685 4.18782,-12.91246 2.51769,-4.34731 5.38272,-9.49708 10.12058,-11.16754 2.1103,-0.74404 6.93258,-1.17021 6.63073,1.04696 0,0 -0.19914,9.53987 -0.34899,14.3084 -0.0951,3.02529 0.25087,6.10689 -0.34898,9.07363 -3.00593,14.86653 -9.85324,28.73396 -16.05334,42.57622 -4.72184,10.54196 -11.76898,19.98352 -16.05333,30.71073 -1.57056,3.93238 -3.48985,12.21449 -3.48985,12.21449 -26.3322,3.75244 -41.87085,3.16409 -69.7971,0.34898 z"
         style="fill:#000000;fill-opacity:1;fill-rule:evenodd;stroke:#000000;stroke-width:0.12214492px;stroke-linecap:butt;stroke-linejoin:miter;stroke-opacity:1" />
      <path
         sodipodi:nodetypes="ssssssssssssssssssssssssssssssssssssssssssssssss"
         inkscape:connector-curvature="0"
         id="path4147-6"
         d="m 92.224554,556.16475 c 0,0 -7.10215,-13.88309 -9.42261,-21.28811 -2.01934,-6.44408 -1.45464,-13.57399 -3.83884,-19.89217 -3.00067,-7.95183 -8.55297,-14.69018 -12.91247,-21.98609 -3.56118,-5.95987 -7.72569,-11.58244 -10.81855,-17.79826 -2.95429,-5.93735 -6.39574,-11.93043 -7.32869,-18.49623 -0.34523,-2.42954 -1.26473,-5.85571 0.69797,-7.32869 1.98899,-1.49271 5.28566,-0.0219 7.3287,1.39593 6.26105,4.34512 7.21645,13.5044 11.8655,19.5432 2.65995,3.45508 4.95687,7.98552 9.07362,9.4226 1.66202,0.58018 4.34658,0.8219 5.23479,-0.69797 0.63215,-1.08172 -0.94237,-2.32194 -1.39594,-3.48985 -3.10525,-7.99579 -6.54617,-15.88322 -9.07363,-24.08 -1.1639,-3.77466 -1.9893,-7.64888 -2.79188,-11.51652 -1.24734,-6.01097 -2.19499,-12.08154 -3.14087,-18.14725 -0.65144,-4.17754 -2.30745,-8.37304 -1.74493,-12.56348 0.23574,-1.75611 0.69552,-3.79768 2.09391,-4.88579 1.76599,-1.37414 3.57336,-2.16129 4.8858,-0.34899 0,0 6.0619,8.44452 7.67768,13.61044 1.22333,3.91115 3.27586,8.09699 4.8858,11.8655 4.64046,10.86235 6.24054,23.14513 11.51652,32.45565 0.7094,1.25188 2.94943,1.77964 4.18783,1.04696 1.967006,-1.16376 1.865736,-4.34843 1.744926,-6.63072 -1.380676,-26.08228 -2.973286,-48.75612 -3.838846,-72.24 -0.10982,-2.97971 0.65217,-6.73337 3.140866,-8.37565 2.13827,-1.41103 5.52958,-1.04702 7.67769,0.34898 2.61728,1.70091 3.63922,5.30282 4.18782,8.37565 4.29425,24.05296 5.30193,50.45496 10.12058,70.49507 0.32861,1.36665 3.27144,3.03092 3.83884,1.74493 9.28469,-21.04347 6.75577,-48.06053 14.65739,-70.84405 0.85232,-2.45758 1.27715,-5.61219 3.48986,-6.97971 1.58327,-0.97852 3.92254,-0.83943 5.58376,0 2.45038,1.23819 4.79066,3.88692 4.8858,6.63072 0.77243,22.27603 -3.2032,44.88681 -4.18783,67.3542 -0.38181,8.7124 1.4434,17.54726 4.18783,25.82493 1.03156,3.11135 2.26536,6.36134 4.53681,8.72463 1.29981,1.35237 3.01896,2.97443 4.8858,2.79189 2.29809,-0.22472 3.81068,-2.71921 5.23478,-4.53681 3.62579,-4.62766 5.77496,-10.27376 8.02667,-15.70435 1.73309,-4.17981 1.92014,-8.99685 4.18782,-12.91246 2.51769,-4.34731 5.38272,-9.49708 10.12058,-11.16754 2.1103,-0.74404 6.93258,-1.17021 6.63073,1.04696 0,0 -0.19914,9.53987 -0.34899,14.3084 -0.0951,3.02529 0.25087,6.10689 -0.34898,9.07363 -3.00593,14.86653 -9.85324,28.73396 -16.05334,42.57622 -4.72184,10.54196 -11.76898,19.98352 -16.05333,30.71073 -1.57056,3.93238 -3.48985,12.21449 -3.48985,12.21449 -26.3322,3.75244 -41.87085,3.16409 -69.797096,0.34898 z"
         style="fill:#003cff;fill-opacity:1;fill-rule:evenodd;stroke:#000000;stroke-width:0.12214492px;stroke-linecap:butt;stroke-linejoin:miter;stroke-opacity:1" />
    </g>
  </g>
</svg>
